# xmcd
#
# Track frame offsets:
#	150
#	18354
#	35455
#	54748
#	72600
#	89234
#	104110
#	121700
#	141423
#	162465
#	184889
#	204014
#	223110
#	242526
#	260327
#
# Disc length: 3745
#
# Revision: 1
# Processed by: cddbd v1.5.2PL0 Copyright (c) Steve Scherf et al.
# Submitted via: kJams Pro (development) 1.0patch45
#
DISCID=e50e9f0f
DTITLE=Faith Hill and Tim McGraw - Greatest Hits Vol. 1
DYEAR=2006
DGENRE=Karaoke
TTITLE0=Faith Hill - Breathe
TTITLE1=Faith Hill - Cry
TTITLE2=Faith Hill - Like We Never Loved At All
TTITLE3=Faith Hill - Mississippi Girl
TTITLE4=Faith Hill - There You'll Be
TTITLE5=Faith Hill - This Kiss
TTITLE6=Faith Hill and Tim McGraw - It's Your Love
TTITLE7=Faith Hill and Tim McGraw - Let's Make Love
TTITLE8=Tim McGraw - Back When
TTITLE9=Tim McGraw - Live Like You Were Dying
TTITLE10=Tim McGraw - Real Good Man
TTITLE11=Tim McGraw - Red Ragtop
TTITLE12=Tim McGraw - She's My Kind Of Rain
TTITLE13=Tim McGraw - Unbroken
TTITLE14=Tim McGraw - Watch The Wind Blow By
EXTD=
EXTT0=
EXTT1=
EXTT2=
EXTT3=
EXTT4=
EXTT5=
EXTT6=
EXTT7=
EXTT8=
EXTT9=
EXTT10=
EXTT11=
EXTT12=
EXTT13=
EXTT14=
PLAYORDER=
